<svg width="18" height="18" viewBox="0 0 18 18" fill="none" xmlns="http://www.w3.org/2000/svg">
<path d="M6.6 17H11.4C15.4 17 17 15.4 17 11.4V6.6C17 2.6 15.4 1 11.4 1H6.6C2.6 1 1 2.6 1 6.6V11.4C1 15.4 2.6 17 6.6 17Z" stroke="#64696D" stroke-width="1.4" stroke-linecap="round" stroke-linejoin="round"/>
<path d="M11.856 14.2001V11.0801" stroke="#64696D" stroke-width="1.4" stroke-miterlimit="10" stroke-linecap="round" stroke-linejoin="round"/>
<path d="M11.856 5.36005V3.80005" stroke="#64696D" stroke-width="1.4" stroke-miterlimit="10" stroke-linecap="round" stroke-linejoin="round"/>
<path d="M11.8579 9.52011C13.0067 9.52011 13.9379 8.58886 13.9379 7.44011C13.9379 6.29136 13.0067 5.36011 11.8579 5.36011C10.7092 5.36011 9.77792 6.29136 9.77792 7.44011C9.77792 8.58886 10.7092 9.52011 11.8579 9.52011Z" fill="#DFECFB" stroke="#64696D" stroke-width="1.4" stroke-miterlimit="10" stroke-linecap="round" stroke-linejoin="round"/>
<path d="M6.14552 14.2001V12.6401" stroke="#64696D" stroke-width="1.4" stroke-miterlimit="10" stroke-linecap="round" stroke-linejoin="round"/>
<path d="M6.14552 6.92005V3.80005" stroke="#64696D" stroke-width="1.4" stroke-miterlimit="10" stroke-linecap="round" stroke-linejoin="round"/>
<path d="M6.14356 12.64C7.29231 12.64 8.22356 11.7087 8.22356 10.56C8.22356 9.41123 7.29231 8.47998 6.14356 8.47998C4.9948 8.47998 4.06356 9.41123 4.06356 10.56C4.06356 11.7087 4.9948 12.64 6.14356 12.64Z" fill="#DFECFB" stroke="#64696D" stroke-width="1.4" stroke-miterlimit="10" stroke-linecap="round" stroke-linejoin="round"/>
</svg>
