<svg width="18" height="18" viewBox="0 0 18 18" fill="none" xmlns="http://www.w3.org/2000/svg">
<path d="M12.9998 7.4H14.5998C16.1998 7.4 16.9998 6.6 16.9998 5V3.4C16.9998 1.8 16.1998 1 14.5998 1H12.9998C11.3998 1 10.5998 1.8 10.5998 3.4V5C10.5998 6.6 11.3998 7.4 12.9998 7.4Z" stroke="#64696D" stroke-width="1.4" stroke-miterlimit="10" stroke-linecap="round" stroke-linejoin="round"/>
<path d="M3.4002 17H5.0002C6.6002 17 7.4002 16.2 7.4002 14.6V13C7.4002 11.4 6.6002 10.6 5.0002 10.6H3.4002C1.8002 10.6 1.0002 11.4 1.0002 13V14.6C1.0002 16.2 1.8002 17 3.4002 17Z" stroke="#64696D" stroke-width="1.4" stroke-miterlimit="10" stroke-linecap="round" stroke-linejoin="round"/>
<path d="M4.2002 7.4C5.96751 7.4 7.4002 5.96731 7.4002 4.2C7.4002 2.43269 5.96751 1 4.2002 1C2.43289 1 1.0002 2.43269 1.0002 4.2C1.0002 5.96731 2.43289 7.4 4.2002 7.4Z" fill="#DFECFB" stroke="#64696D" stroke-width="1.4" stroke-miterlimit="10" stroke-linecap="round" stroke-linejoin="round"/>
<path d="M13.7998 17C15.5671 17 16.9998 15.5673 16.9998 13.8C16.9998 12.0327 15.5671 10.6 13.7998 10.6C12.0325 10.6 10.5998 12.0327 10.5998 13.8C10.5998 15.5673 12.0325 17 13.7998 17Z" fill="#DFECFB" stroke="#64696D" stroke-width="1.4" stroke-miterlimit="10" stroke-linecap="round" stroke-linejoin="round"/>
</svg>
