<svg width="100" height="101" viewBox="0 0 100 101" fill="none" xmlns="http://www.w3.org/2000/svg">
<circle cx="45.3684" cy="26" r="1.5" fill="#323436"/>
<circle cx="50" cy="26" r="1.5" fill="#323436"/>
<circle cx="54.6316" cy="26" r="1.5" fill="#323436"/>
<path d="M47.6 83H52.4C56.4 83 58 81.4 58 77.4V72.6C58 68.6 56.4 67 52.4 67H47.6C43.6 67 42 68.6 42 72.6V77.4C42 81.4 43.6 83 47.6 83Z" stroke="#64696D" stroke-width="1.4" stroke-linecap="round" stroke-linejoin="round"/>
<path d="M52.856 80.2001V77.0801" stroke="#64696D" stroke-width="1.4" stroke-miterlimit="10" stroke-linecap="round" stroke-linejoin="round"/>
<path d="M52.856 71.36V69.8" stroke="#64696D" stroke-width="1.4" stroke-miterlimit="10" stroke-linecap="round" stroke-linejoin="round"/>
<path d="M52.8579 75.5201C54.0067 75.5201 54.9379 74.5889 54.9379 73.4401C54.9379 72.2914 54.0067 71.3601 52.8579 71.3601C51.7092 71.3601 50.7779 72.2914 50.7779 73.4401C50.7779 74.5889 51.7092 75.5201 52.8579 75.5201Z" fill="#DFECFB" stroke="#64696D" stroke-width="1.4" stroke-miterlimit="10" stroke-linecap="round" stroke-linejoin="round"/>
<path d="M47.1455 80.2001V78.6401" stroke="#64696D" stroke-width="1.4" stroke-miterlimit="10" stroke-linecap="round" stroke-linejoin="round"/>
<path d="M47.1455 72.92V69.8" stroke="#64696D" stroke-width="1.4" stroke-miterlimit="10" stroke-linecap="round" stroke-linejoin="round"/>
<path d="M47.1436 78.64C48.2923 78.64 49.2236 77.7087 49.2236 76.56C49.2236 75.4112 48.2923 74.48 47.1436 74.48C45.9948 74.48 45.0636 75.4112 45.0636 76.56C45.0636 77.7087 45.9948 78.64 47.1436 78.64Z" fill="#DFECFB" stroke="#64696D" stroke-width="1.4" stroke-miterlimit="10" stroke-linecap="round" stroke-linejoin="round"/>
</svg>
