<svg width="22" height="22" viewBox="0 0 22 22" fill="none" xmlns="http://www.w3.org/2000/svg">
<path d="M8.6 19H13.4C17.4 19 19 17.4 19 13.4V8.6C19 4.6 17.4 3 13.4 3H8.6C4.6 3 3 4.6 3 8.6V13.4C3 17.4 4.6 19 8.6 19Z" stroke="#FBFDFF" stroke-width="1.4" stroke-linecap="round" stroke-linejoin="round"/>
<path d="M13.856 16.2V13.08" stroke="#FBFDFF" stroke-width="1.4" stroke-miterlimit="10" stroke-linecap="round" stroke-linejoin="round"/>
<path d="M13.856 7.35999V5.79999" stroke="#FBFDFF" stroke-width="1.4" stroke-miterlimit="10" stroke-linecap="round" stroke-linejoin="round"/>
<path d="M13.8579 11.52C15.0067 11.52 15.9379 10.5887 15.9379 9.43999C15.9379 8.29123 15.0067 7.35999 13.8579 7.35999C12.7092 7.35999 11.7779 8.29123 11.7779 9.43999C11.7779 10.5887 12.7092 11.52 13.8579 11.52Z" fill="#1D7FFF" stroke="#FBFDFF" stroke-width="1.4" stroke-miterlimit="10" stroke-linecap="round" stroke-linejoin="round"/>
<path d="M8.14552 16.2V14.64" stroke="#FBFDFF" stroke-width="1.4" stroke-miterlimit="10" stroke-linecap="round" stroke-linejoin="round"/>
<path d="M8.14552 8.91999V5.79999" stroke="#FBFDFF" stroke-width="1.4" stroke-miterlimit="10" stroke-linecap="round" stroke-linejoin="round"/>
<path d="M8.14356 14.64C9.29231 14.64 10.2236 13.7087 10.2236 12.56C10.2236 11.4112 9.29231 10.48 8.14356 10.48C6.9948 10.48 6.06356 11.4112 6.06356 12.56C6.06356 13.7087 6.9948 14.64 8.14356 14.64Z" fill="#1D7FFF" stroke="#FBFDFF" stroke-width="1.4" stroke-miterlimit="10" stroke-linecap="round" stroke-linejoin="round"/>
</svg>
