<svg width="22" height="22" viewBox="0 0 22 22" fill="none" xmlns="http://www.w3.org/2000/svg">
<path d="M18.4565 16.2766L17.1264 16.5909C16.8281 16.6635 16.5944 16.8892 16.5299 17.1875L16.2478 18.3725C16.0946 19.0173 15.2724 19.2108 14.8451 18.703L11 14.2855L7.15487 18.711C6.72764 19.2189 5.90541 19.0254 5.75225 18.3805L5.47011 17.1955C5.39756 16.8973 5.16379 16.6635 4.87359 16.599L3.54352 16.2846C2.93087 16.1395 2.71323 15.3737 3.15658 14.9304L6.3004 11.7866C7.17099 13.0763 8.54944 13.9872 10.1536 14.221C10.4277 14.2694 10.7098 14.2936 11 14.2936C11.2902 14.2936 11.5723 14.2694 11.8464 14.221C13.4506 13.9872 14.829 13.0763 15.6996 11.7866L18.8434 14.9304C19.2868 15.3657 19.0691 16.1315 18.4565 16.2766Z" stroke="#64696D" stroke-width="1.4" stroke-linecap="round" stroke-linejoin="round"/>
<path fill-rule="evenodd" clip-rule="evenodd" d="M15.6991 11.7785C16.2956 10.8837 16.6422 9.8116 16.6422 8.64274C16.6422 5.52311 14.1191 3 10.9995 3C7.87983 3 5.35672 5.52311 5.35672 8.64274C5.35672 9.8116 5.70334 10.8837 6.29986 11.7785C7.17046 13.0683 8.5489 13.9792 10.153 14.2129C10.4271 14.2613 10.7093 14.2855 10.9995 14.2855C11.2897 14.2855 11.5718 14.2613 11.8459 14.2129C13.45 13.9792 14.8285 13.0683 15.6991 11.7785ZM11.9412 7.15955L11.4655 6.20835C11.2076 5.69244 10.7884 5.69244 10.5546 6.20835L10.079 7.15955C10.0146 7.28853 9.84528 7.41751 9.70018 7.44169L8.83764 7.58679C8.28949 7.68352 8.16051 8.07852 8.55551 8.47351L9.22457 9.14256C9.33743 9.25542 9.39386 9.48114 9.36161 9.6343L9.16815 10.4646C9.01499 11.1175 9.36161 11.3674 9.94201 11.0289L10.7481 10.5533C10.8932 10.4646 11.135 10.4646 11.2801 10.5533L12.0863 11.0289C12.6666 11.3755 13.0133 11.1175 12.8601 10.4646L12.6666 9.6343C12.6263 9.47308 12.6908 9.25542 12.8037 9.14256L13.4728 8.47351C13.8677 8.07852 13.7388 7.67546 13.1906 7.58679L12.3281 7.44169C12.1749 7.41751 12.0056 7.28853 11.9412 7.15955Z" fill="#DFECFB"/>
<path d="M15.6991 11.7785L16.2378 12.1422L16.2399 12.1391L15.6991 11.7785ZM6.29986 11.7785L5.75902 12.1391L5.76111 12.1422L6.29986 11.7785ZM10.153 14.2129L10.266 13.5728C10.2596 13.5717 10.2532 13.5707 10.2468 13.5697L10.153 14.2129ZM11.8459 14.2129L11.7521 13.5697C11.7457 13.5707 11.7393 13.5717 11.7329 13.5728L11.8459 14.2129ZM11.4655 6.20835L10.8842 6.49904L10.8842 6.49904L11.4655 6.20835ZM11.9412 7.15955L12.5225 6.86886L12.5225 6.86886L11.9412 7.15955ZM10.5546 6.20835L11.136 6.49904C11.1397 6.49164 11.1433 6.48416 11.1467 6.47663L10.5546 6.20835ZM10.079 7.15955L9.49767 6.86886L9.49767 6.86886L10.079 7.15955ZM9.70018 7.44169L9.59332 6.80054L9.59235 6.8007L9.70018 7.44169ZM8.83764 7.58679L8.72981 6.94577L8.72468 6.94668L8.83764 7.58679ZM8.55551 8.47351L8.09589 8.93313L8.09589 8.93313L8.55551 8.47351ZM9.22457 9.14256L9.68419 8.68295L9.68419 8.68294L9.22457 9.14256ZM9.36161 9.6343L9.9948 9.78184L9.99767 9.76821L9.36161 9.6343ZM9.16815 10.4646L9.80097 10.613L9.80119 10.6121L9.16815 10.4646ZM9.94201 11.0289L10.2695 11.5903L10.2723 11.5887L9.94201 11.0289ZM10.7481 10.5533L11.0785 11.1131L11.0871 11.1079L10.7481 10.5533ZM11.2801 10.5533L10.9412 11.108L10.9499 11.1131L11.2801 10.5533ZM12.0863 11.0289L12.4195 10.4708L12.4165 10.469L12.0863 11.0289ZM12.8601 10.4646L12.2271 10.6121L12.2273 10.613L12.8601 10.4646ZM12.6666 9.6343L13.2998 9.48678L13.2972 9.47665L12.6666 9.6343ZM12.8037 9.14256L12.3441 8.68294L12.3441 8.68295L12.8037 9.14256ZM13.4728 8.47351L13.9324 8.93313L13.9324 8.93313L13.4728 8.47351ZM13.1906 7.58679L13.0828 8.22779L13.0868 8.22844L13.1906 7.58679ZM12.3281 7.44169L12.4359 6.80067L12.4295 6.79965L12.3281 7.44169ZM15.9922 8.64274C15.9922 9.68019 15.6853 10.6274 15.1582 11.418L16.2399 12.1391C16.9059 11.1401 17.2922 9.943 17.2922 8.64274H15.9922ZM10.9995 3.65C13.7601 3.65 15.9922 5.8821 15.9922 8.64274H17.2922C17.2922 5.16413 14.4781 2.35 10.9995 2.35V3.65ZM6.00672 8.64274C6.00672 5.8821 8.23881 3.65 10.9995 3.65V2.35C7.52084 2.35 4.70672 5.16413 4.70672 8.64274H6.00672ZM6.84069 11.418C6.31363 10.6274 6.00672 9.68019 6.00672 8.64274H4.70672C4.70672 9.943 5.09305 11.1401 5.75903 12.1391L6.84069 11.418ZM10.2468 13.5697C8.83118 13.3634 7.61113 12.5593 6.83861 11.4149L5.76111 12.1422C6.72978 13.5772 8.26662 14.5949 10.0593 14.8561L10.2468 13.5697ZM10.9995 13.6355C10.7455 13.6355 10.5012 13.6143 10.266 13.5728L10.0401 14.853C10.353 14.9083 10.673 14.9355 10.9995 14.9355V13.6355ZM11.7329 13.5728C11.4977 13.6143 11.2534 13.6355 10.9995 13.6355V14.9355C11.3259 14.9355 11.6459 14.9083 11.9588 14.853L11.7329 13.5728ZM15.1603 11.4149C14.3878 12.5593 13.1677 13.3634 11.7521 13.5697L11.9396 14.8561C13.7323 14.5949 15.2691 13.5772 16.2378 12.1422L15.1603 11.4149ZM10.8842 6.49904L11.3598 7.45024L12.5225 6.86886L12.0469 5.91766L10.8842 6.49904ZM11.1467 6.47663C11.1769 6.40994 11.1953 6.40069 11.1792 6.41432C11.1582 6.43209 11.0962 6.47142 11.001 6.47142C10.9075 6.47142 10.8507 6.43345 10.8369 6.42226C10.8268 6.41402 10.8492 6.4291 10.8842 6.49904L12.0469 5.91766C11.8729 5.56968 11.5314 5.17142 11.001 5.17142C10.4597 5.17142 10.1242 5.58337 9.9626 5.94008L11.1467 6.47663ZM10.6604 7.45024L11.136 6.49904L9.97327 5.91766L9.49767 6.86886L10.6604 7.45024ZM9.80704 8.08285C10.0107 8.04891 10.1845 7.9539 10.3098 7.85991C10.4354 7.76573 10.5715 7.62816 10.6604 7.45024L9.49767 6.86886C9.51194 6.84032 9.52452 6.82586 9.52723 6.82281C9.53073 6.81888 9.53152 6.81866 9.52983 6.81992C9.52812 6.82121 9.52919 6.82002 9.53522 6.81719C9.54025 6.81483 9.55963 6.80615 9.59332 6.80054L9.80704 8.08285ZM8.94547 8.22778L9.808 8.08269L9.59235 6.8007L8.72982 6.94579L8.94547 8.22778ZM9.01513 8.01389C8.96437 7.96313 8.95977 7.94098 8.96532 7.95593C8.97275 7.97597 8.98735 8.03727 8.96184 8.11683C8.93645 8.19597 8.88964 8.23621 8.87387 8.24701C8.86219 8.255 8.87997 8.23936 8.9506 8.2269L8.72468 6.94668C8.34118 7.01435 7.88169 7.22801 7.72395 7.71977C7.56531 8.21437 7.81853 8.65577 8.09589 8.93313L9.01513 8.01389ZM9.68419 8.68294L9.01512 8.01388L8.09589 8.93313L8.76496 9.60219L9.68419 8.68294ZM9.99767 9.76821C10.0399 9.56784 10.0189 9.36661 9.97509 9.20409C9.93181 9.04358 9.84547 8.84422 9.68419 8.68295L8.76495 9.60218C8.73733 9.57456 8.7254 9.55292 8.72237 9.54714C8.71879 9.54031 8.71893 9.53887 8.71992 9.54255C8.72087 9.54608 8.72085 9.54781 8.72071 9.54549C8.72065 9.54437 8.71963 9.52853 8.72556 9.5004L9.99767 9.76821ZM9.80119 10.6121L9.99465 9.78181L8.72857 9.4868L8.5351 10.3171L9.80119 10.6121ZM9.61449 10.4674C9.51813 10.5236 9.47218 10.5306 9.47398 10.5304C9.48079 10.5295 9.56574 10.5227 9.66207 10.5927C9.75934 10.6634 9.78032 10.7484 9.78231 10.7594C9.7832 10.7642 9.77569 10.7208 9.80097 10.613L8.53532 10.3162C8.44608 10.6966 8.41844 11.296 8.89792 11.6444C9.37248 11.9892 9.93282 11.7867 10.2695 11.5903L9.61449 10.4674ZM10.4178 9.99342L9.61171 10.469L10.2723 11.5887L11.0784 11.1131L10.4178 9.99342ZM11.6191 9.99862C11.4196 9.8767 11.1975 9.83675 11.0141 9.83675C10.8308 9.83675 10.6087 9.8767 10.4092 9.99862L11.0871 11.1079C11.0564 11.1266 11.034 11.1329 11.0264 11.1348C11.0179 11.1369 11.0142 11.1367 11.0141 11.1367C11.014 11.1367 11.0104 11.1369 11.0019 11.1348C10.9942 11.1329 10.9719 11.1266 10.9412 11.1079L11.6191 9.99862ZM12.4165 10.469L11.6104 9.99342L10.9499 11.1131L11.756 11.5887L12.4165 10.469ZM12.2273 10.613C12.2525 10.7203 12.2452 10.7647 12.2458 10.7611C12.2474 10.7522 12.2673 10.6683 12.3637 10.5975C12.4604 10.5266 12.5469 10.5328 12.5564 10.534C12.5602 10.5345 12.5154 10.5281 12.4195 10.4708L11.753 11.5869C12.0913 11.789 12.6553 11.996 13.1328 11.6456C13.6091 11.2961 13.5824 10.6974 13.4929 10.3162L12.2273 10.613ZM12.0336 9.78181L12.2271 10.6121L13.4932 10.3171L13.2997 9.4868L12.0336 9.78181ZM12.3441 8.68295C12.1918 8.8352 12.1004 9.02404 12.0525 9.19267C12.0045 9.36164 11.9818 9.57501 12.0361 9.79195L13.2972 9.47665C13.305 9.50785 13.3048 9.52875 13.3044 9.53633C13.3041 9.54456 13.303 9.5479 13.303 9.54792C13.303 9.54795 13.3023 9.55072 13.2989 9.55701C13.2958 9.56254 13.2857 9.57974 13.2633 9.60218L12.3441 8.68295ZM13.0131 8.01388L12.3441 8.68294L13.2633 9.60219L13.9324 8.93313L13.0131 8.01388ZM13.0868 8.22844C13.1549 8.23946 13.1701 8.25426 13.1561 8.24474C13.1378 8.23231 13.0911 8.19107 13.0661 8.11268C13.0412 8.03454 13.0555 7.97496 13.0625 7.95612C13.0677 7.94188 13.063 7.96407 13.0131 8.01389L13.9324 8.93313C14.2121 8.65342 14.4618 8.2108 14.3047 7.71788C14.1469 7.22306 13.6852 7.00834 13.2944 6.94513L13.0868 8.22844ZM12.2203 8.08269L13.0828 8.22778L13.2984 6.94579L12.4359 6.8007L12.2203 8.08269ZM11.3598 7.45024C11.449 7.62875 11.5859 7.76721 11.715 7.86263C11.8449 7.95861 12.0213 8.0513 12.2267 8.08374L12.4295 6.79965C12.4592 6.80434 12.4765 6.81175 12.4816 6.81407C12.4874 6.81672 12.4888 6.81801 12.4877 6.81721C12.4866 6.8164 12.4881 6.81716 12.4921 6.8217C12.4954 6.82539 12.5082 6.8402 12.5225 6.86886L11.3598 7.45024Z" fill="#64696D"/>
</svg>
