<svg width="37" height="27" viewBox="0 0 37 27" fill="none" xmlns="http://www.w3.org/2000/svg">
<path d="M10.2788 3.81761L9.65106 2.14367C9.65106 2.14367 0.970947 3.22194 0.970947 13.4531C0.970947 23.6843 9.61388 24.9018 9.61388 24.9018L10.2788 23.2279C10.2788 23.2279 5.883 22.0559 5.883 13.4531C5.883 4.85038 10.2788 3.81761 10.2788 3.81761Z" fill="#64696D"/>
<path d="M15.0509 2.61248L14.3989 0.846153C14.3989 0.846153 8.18408 4.09062 8.18408 13.5221C8.18408 22.9535 14.376 26.1097 14.376 26.1097L15.0509 24.422C15.0509 24.422 10.9726 21.9373 10.9726 13.5221C10.9726 5.10685 15.0509 2.61248 15.0509 2.61248Z" fill="#64696D"/>
<path d="M27.2302 23.1838L27.858 24.8577C27.858 24.8577 36.5381 23.7781 36.5381 13.5483C36.5381 3.31846 27.8952 2.09954 27.8952 2.09954L27.2302 3.77348C27.2302 3.77348 31.626 4.94552 31.626 13.5483C31.626 22.151 27.2302 23.1838 27.2302 23.1838Z" fill="#64696D"/>
<path d="M22.458 24.3875L23.1101 26.1538C23.1101 26.1538 29.3249 22.9094 29.3249 13.4779C29.3249 4.0465 23.133 0.890278 23.133 0.890278L22.458 2.57801C22.458 2.57801 26.5364 5.06272 26.5364 13.4779C26.5364 21.8932 22.458 24.3875 22.458 24.3875Z" fill="#64696D"/>
</svg>
