<svg width="22" height="22" viewBox="0 0 22 22" fill="none" xmlns="http://www.w3.org/2000/svg">
<path d="M15.8754 8.69974C15.8253 8.69178 15.767 8.69178 15.7169 8.69974C14.566 8.65994 13.6487 7.76039 13.6487 6.64591C13.6487 5.50754 14.6077 4.59207 15.8003 4.59207C16.9929 4.59207 17.9519 5.5155 17.9519 6.64591C17.9436 7.76039 17.0262 8.65994 15.8754 8.69974Z" fill="#DFECFB" stroke="#64696D" stroke-width="1.4" stroke-linecap="round" stroke-linejoin="round"/>
<path d="M19.64 11.3339C18.7261 9.38414 16.8164 8.7316 15.3151 8.73158C14.6137 8.73853 13.1238 8.91885 12.7752 9.5845" stroke="#64696D" stroke-width="1.4" stroke-linecap="round" stroke-linejoin="round"/>
<path d="M11.0588 14.5768C10.998 14.5671 10.9271 14.5671 10.8662 14.5768C9.46749 14.5284 8.35254 13.4351 8.35254 12.0806C8.35254 10.697 9.51816 9.58438 10.9676 9.58438C12.417 9.58438 13.5827 10.7067 13.5827 12.0806C13.5725 13.4351 12.4576 14.5381 11.0588 14.5768Z" fill="#DFECFB" stroke="#64696D" stroke-width="1.4" stroke-linecap="round" stroke-linejoin="round"/>
<path d="M6.62598 17.921C7.98193 16.0373 11.6236 13.4001 15.3428 17.921" stroke="#64696D" stroke-width="1.4" stroke-linecap="round" stroke-linejoin="round"/>
<path d="M6.1593 8.69971C6.20933 8.69175 6.26771 8.69175 6.31775 8.69971C7.46862 8.65991 8.38599 7.76036 8.38599 6.64588C8.38599 5.50751 7.42693 4.59204 6.23435 4.59204C5.04178 4.59204 4.08272 5.51547 4.08272 6.64588C4.09106 7.76036 5.00842 8.65991 6.1593 8.69971Z" fill="#DFECFB" stroke="#64696D" stroke-width="1.4" stroke-linecap="round" stroke-linejoin="round"/>
<path d="M2.39235 11.3064C3.30627 9.35663 5.21589 8.70409 6.71723 8.70407C7.12775 8.72015 8.12313 8.91874 8.82048 9.58439" stroke="#64696D" stroke-width="1.4" stroke-linecap="round" stroke-linejoin="round"/>
</svg>
