<svg width="19" height="18" viewBox="0 0 19 18" fill="none" xmlns="http://www.w3.org/2000/svg">
<path d="M13.8753 6.69974C13.8253 6.69178 13.7669 6.69178 13.7169 6.69974C12.566 6.65994 11.6487 5.76039 11.6487 4.64591C11.6487 3.50754 12.6077 2.59207 13.8003 2.59207C14.9929 2.59207 15.9519 3.5155 15.9519 4.64591C15.9436 5.76039 15.0262 6.65994 13.8753 6.69974Z" fill="#DFECFB" stroke="#64696D" stroke-width="1.4" stroke-linecap="round" stroke-linejoin="round"/>
<path d="M17.64 9.33391C16.726 7.38414 14.8164 6.7316 13.3151 6.73158C12.6137 6.73853 11.1238 6.91885 10.7751 7.5845" stroke="#64696D" stroke-width="1.4" stroke-linecap="round" stroke-linejoin="round"/>
<path d="M9.05882 12.5768C8.998 12.5671 8.92705 12.5671 8.86624 12.5768C7.46749 12.5284 6.35254 11.4351 6.35254 10.0806C6.35254 8.69703 7.51816 7.58438 8.9676 7.58438C10.417 7.58438 11.5827 8.7067 11.5827 10.0806C11.5725 11.4351 10.4576 12.5381 9.05882 12.5768Z" fill="#DFECFB" stroke="#64696D" stroke-width="1.4" stroke-linecap="round" stroke-linejoin="round"/>
<path d="M4.62609 15.921C5.98204 14.0373 9.62375 11.4001 13.3429 15.921" stroke="#64696D" stroke-width="1.4" stroke-linecap="round" stroke-linejoin="round"/>
</svg>
